HIERARCHY
ROOT Hips
{
	OFFSET 0.000000 0.000000 0.000000
	CHANNELS 6 Xposition Yposition Zposition Xrotation Yrotation Zrotation
	JOINT LeftUpLeg_virtual
	{
		OFFSET 0.000000 0.000000 0.000000
		CHANNELS 3 Xrotation Yrotation Zrotation
		JOINT LeftUpLeg
		{
			OFFSET 13.026900 -6.336304 -1.092800
			CHANNELS 3 Xrotation Yrotation Zrotation
			JOINT LeftLeg
			{
				OFFSET 0.524474 -46.096886 9.782700
				CHANNELS 3 Xrotation Yrotation Zrotation
				JOINT LeftFoot
				{
					OFFSET -0.524474 -53.427422 -12.948200
					CHANNELS 3 Xrotation Yrotation Zrotation
					JOINT LeftToeBase
					{
						OFFSET 0.192200 -14.009700 16.364100
						CHANNELS 3 Xrotation Yrotation Zrotation
						JOINT LeftToe_End
						{
							OFFSET -1.784700 -0.561700 9.474800
							CHANNELS 3 Xrotation Yrotation Zrotation
							End Site
							{
								OFFSET 0 0 0
							}
						}
					}
				}
			}
		}
	}
	JOINT RightUpLeg_virtual
	{
		OFFSET 0.000000 0.000000 0.000000
		CHANNELS 3 Xrotation Yrotation Zrotation
		JOINT RightUpLeg
		{
			OFFSET -12.883000 -6.336304 -1.092800
			CHANNELS 3 Xrotation Yrotation Zrotation
			JOINT RightLeg
			{
				OFFSET -0.524587 -46.096825 9.782800
				CHANNELS 3 Xrotation Yrotation Zrotation
				JOINT RightFoot
				{
					OFFSET 0.524587 -53.427383 -12.948300
					CHANNELS 3 Xrotation Yrotation Zrotation
					JOINT RightToeBase
					{
						OFFSET -0.192200 -14.009700 16.364100
						CHANNELS 3 Xrotation Yrotation Zrotation
						JOINT RightToe_End
						{
							OFFSET 1.784700 -0.561700 9.474800
							CHANNELS 3 Xrotation Yrotation Zrotation
							End Site
							{
								OFFSET 0 0 0
							}
						}
					}
				}
			}
		}
	}
	JOINT Spine_virtual
	{
		OFFSET 0.000000 0.000000 0.000000
		CHANNELS 3 Xrotation Yrotation Zrotation
		JOINT Spine
		{
			OFFSET 0.072000 7.257294 -0.789700
			CHANNELS 3 Xrotation Yrotation Zrotation
			JOINT Spine1
			{
				OFFSET 0.000000 12.508769 -0.658067
				CHANNELS 3 Xrotation Yrotation Zrotation
				JOINT Spine1_split
				{
					OFFSET 0.000000 12.508769 -0.658067
					CHANNELS 3 Xrotation Yrotation Zrotation
					JOINT Spine2
					{
						OFFSET 0.000000 12.508769 -0.658067
						CHANNELS 3 Xrotation Yrotation Zrotation
						JOINT Neck_virtual
						{
							OFFSET 0.000000 0.000000 0.000000
							CHANNELS 3 Xrotation Yrotation Zrotation
							JOINT Neck
							{
								OFFSET 0.000000 14.033295 7.520400
								CHANNELS 3 Xrotation Yrotation Zrotation
								JOINT Head
								{
									OFFSET 0.000000 8.198502 5.703100
									CHANNELS 3 Xrotation Yrotation Zrotation
									JOINT HeadTop_End
									{
										OFFSET 0.000000 17.760803 13.332701
										CHANNELS 3 Xrotation Yrotation Zrotation
										End Site
										{
											OFFSET 0 0 0
										}
									}
								}
							}
						}
						JOINT LeftShoulder_virtual
						{
							OFFSET 0.000000 0.000000 0.000000
							CHANNELS 3 Xrotation Yrotation Zrotation
							JOINT LeftShoulder
							{
								OFFSET 6.292450 5.785301 -0.669000
								CHANNELS 3 Xrotation Yrotation Zrotation
								JOINT LeftShoulder_split
								{
									OFFSET 6.292450 5.785301 -0.669000
									CHANNELS 3 Xrotation Yrotation Zrotation
									JOINT LeftArm
									{
										OFFSET 13.907140 -6.093903 1.965100
										CHANNELS 3 Xrotation Yrotation Zrotation
										JOINT LeftForeArm
										{
											OFFSET 34.140198 0.000000 0.000000
											CHANNELS 3 Xrotation Yrotation Zrotation
											JOINT LeftHand
											{
												OFFSET 40.960209 0.000000 0.000000
												CHANNELS 3 Xrotation Yrotation Zrotation
												End Site
												{
													OFFSET 0 0 0
												}
											}
										}
									}
								}
							}
						}
						JOINT RightShoulder_virtual
						{
							OFFSET 0.000000 0.000000 0.000000
							CHANNELS 3 Xrotation Yrotation Zrotation
							JOINT RightShoulder
							{
								OFFSET -6.292450 5.785301 -0.669000
								CHANNELS 3 Xrotation Yrotation Zrotation
								JOINT RightShoulder_split
								{
									OFFSET -6.292450 5.785301 -0.669000
									CHANNELS 3 Xrotation Yrotation Zrotation
									JOINT RightArm
									{
										OFFSET -13.907140 -6.093903 1.965100
										CHANNELS 3 Xrotation Yrotation Zrotation
										JOINT RightForeArm
										{
											OFFSET -34.140198 0.000000 0.000000
											CHANNELS 3 Xrotation Yrotation Zrotation
											JOINT RightHand
											{
												OFFSET -40.960209 0.000000 0.000000
												CHANNELS 3 Xrotation Yrotation Zrotation
												End Site
												{
													OFFSET 0 0 0
												}
											}
										}
									}
								}
							}
						}
					}
				}
			}
		}
	}
}
MOTION
Frames: 4
Frame Time: 0.03333333
2.966594 108.485725 2.121483 0.000000 0.000000 0.000000 179.422909 50.670820 177.999893 -25.185520 -6.839624 10.111680 24.954759 -3.488379 1.571366 0.904625 -1.563536 -9.625442 -10.276341 1.983787 -0.904303 0.000000 0.000000 0.000000 176.068111 45.209046 -179.162228 -15.518955 -3.249111 -13.124080 42.331986 -3.358021 -1.236168 -12.372266 -7.285537 14.520204 4.751419 0.015171 0.191841 0.000000 0.000000 0.000000 179.164632 50.759767 178.517075 6.655303 0.639358 9.384385 16.544856 0.334261 -0.698392 8.742288 13.642815 -1.587600 0.000000 0.000000 0.000000 17.117559 0.015054 -2.200903 -29.654233 -4.414062 -2.607704 -3.992932 -7.058069 6.184684 0.000000 0.000000 0.000000 19.319441 -0.355787 -1.536235 4.541454 -13.812148 -14.730181 -14.334720 -13.833641 -2.440902 22.363112 2.533685 -29.313297 44.308393 -74.388041 31.610419 0.000000 0.000000 0.000000 18.512772 0.906007 -1.239340 -0.472362 6.415618 -4.812435 10.116197 2.327100 -0.833859 -19.255340 -20.377431 67.584899 6.600022 58.263802 -8.234818 0.000000 0.000000 0.000000 
3.082223 107.831406 2.058037 0.000000 0.000000 0.000000 178.802973 51.082876 177.505456 -25.489455 -5.446027 10.701268 26.869293 -3.509736 1.751024 0.875637 -1.632597 -9.421724 -9.638462 2.171879 -1.324350 0.000000 0.000000 0.000000 175.189448 45.772359 -179.363445 -17.744582 -3.215441 -12.760223 42.012856 -3.625772 -0.642057 -11.734428 -6.717620 13.703038 5.164382 0.132869 0.396414 0.000000 0.000000 0.000000 177.396842 50.938963 178.637082 7.170577 0.062698 9.320218 16.423724 0.079458 -0.752329 7.107591 12.650321 -3.564887 0.000000 0.000000 0.000000 16.379263 -0.252480 -1.947180 -27.498412 -4.784123 -3.340429 -2.612435 -6.845637 5.954443 0.000000 0.000000 0.000000 18.945514 -0.684109 -1.814809 4.207020 -15.228499 -14.306550 -11.254446 -12.363696 -2.386421 20.200658 2.521287 -28.540671 40.208682 -72.765659 27.391809 0.000000 0.000000 0.000000 18.762019 0.901714 -1.357658 -0.496976 8.023635 -3.981427 10.937045 -0.348090 0.036364 -20.233136 -20.327751 66.891540 5.768083 57.294513 -7.071528 0.000000 0.000000 0.000000 
2.871272 106.105484 1.291611 0.000000 0.000000 0.000000 175.623753 53.295324 178.958934 -26.923363 -3.677194 12.418049 30.533305 -2.918124 2.128554 -0.780073 -0.612023 -9.681041 -8.754395 2.585850 -1.678232 0.000000 0.000000 0.000000 172.314499 47.988472 -178.257036 -23.571953 -1.770679 -11.648684 43.526569 -2.890805 0.213387 -8.361401 -5.079245 14.370546 4.256204 0.321447 0.277372 0.000000 0.000000 0.000000 173.439786 52.831978 -179.805372 7.658889 -0.475142 8.954613 15.714293 -0.116850 -0.657743 6.059879 9.881128 -2.633837 0.000000 0.000000 0.000000 14.915409 -0.577892 -1.509416 -24.140769 -5.402281 -3.539565 -0.763287 -8.826987 7.136408 0.000000 0.000000 0.000000 17.954925 -0.982991 -2.050152 3.467722 -16.741632 -13.157551 -9.375438 -9.978392 -3.151376 19.834902 0.125354 -24.595288 35.692144 -69.644878 22.178268 0.000000 0.000000 0.000000 18.532193 0.924593 -1.270988 -0.576184 9.394761 -3.363063 10.217029 -3.009241 0.877731 -20.731960 -16.419162 64.238790 4.597124 52.131716 -4.980474 0.000000 0.000000 0.000000 
2.217897 103.795319 -0.056339 0.000000 0.000000 0.000000 169.944751 56.901551 -177.469666 -29.483881 -1.628186 14.999377 35.386940 -1.819985 2.512082 -4.538420 1.215538 -10.805189 -8.306733 3.103689 -1.764999 0.000000 0.000000 0.000000 167.332313 51.242067 -175.124807 -31.470664 0.828047 -9.453601 46.550966 -1.726623 0.994142 -4.763280 -2.915058 14.812394 2.701520 0.546330 0.018760 0.000000 0.000000 0.000000 167.196501 55.695306 -176.015081 8.169673 -0.807787 8.260490 14.668454 -0.189133 -0.540152 4.496793 6.919750 -0.473659 0.000000 0.000000 0.000000 13.186362 -0.812700 -1.101552 -20.706089 -6.124614 -2.962792 0.291809 -12.087263 9.237892 0.000000 0.000000 0.000000 16.681689 -1.105272 -2.259656 2.466728 -18.148091 -11.464905 -7.918619 -6.809744 -3.971298 21.230105 -2.063875 -19.100161 33.882847 -67.398292 19.249797 0.000000 0.000000 0.000000 17.866441 0.909239 -1.084153 -0.705786 9.828892 -3.497606 8.392330 -4.152767 1.482359 -19.796115 -10.289638 61.373703 4.086334 44.931617 -3.052829 0.000000 0.000000 0.000000 
